<?xml version="1.0" encoding="UTF-8" standalone="no"?>
<!DOCTYPE svg PUBLIC "-//W3C//DTD SVG 1.1//EN" "http://www.w3.org/Graphics/SVG/1.1/DTD/svg11.dtd">
<svg width="100%" height="100%" viewBox="0 0 154 154" version="1.1" xmlns="http://www.w3.org/2000/svg" xmlns:xlink="http://www.w3.org/1999/xlink" xml:space="preserve" xmlns:serif="http://www.serif.com/" style="fill-rule:evenodd;clip-rule:evenodd;stroke-linejoin:round;stroke-miterlimit:2;">
    <g transform="matrix(0.989063,0,0,0.995702,-10.8422,-11.4303)">
        <g transform="matrix(1.61301,0,0,1.60226,1.18928,-16.639)">
            <circle cx="54.18" cy="65.671" r="48.122" style="fill:url(#_Linear1);"/>
        </g>
        <g transform="matrix(3.15956,0,0,3.13849,-75.0319,-101.871)">
            <g transform="matrix(-0.964957,-0.262406,0.262406,-0.964957,75.7959,160.894)">
                <text x="48.641px" y="75.386px" style="font-family:'Lato-Regular', 'Lato', sans-serif;font-size:6.598px;">J</text>
            </g>
            <g transform="matrix(-0.874235,-0.485503,0.485503,-0.874235,49.5074,162.171)">
                <text x="45.758px" y="74.673px" style="font-family:'Lato-Regular', 'Lato', sans-serif;font-size:6.598px;">A</text>
            </g>
            <g transform="matrix(-0.692001,-0.721897,0.721897,-0.692001,18.1845,152.392)">
                <text x="41.602px" y="72.317px" style="font-family:'Lato-Regular', 'Lato', sans-serif;font-size:6.598px;">P</text>
            </g>
            <g transform="matrix(-0.497059,-0.867717,0.867717,-0.497059,-2.14406,138.231)">
                <text x="38.988px" y="69.737px" style="font-family:'Lato-Regular', 'Lato', sans-serif;font-size:6.598px;">A</text>
            </g>
            <g transform="matrix(-0.170373,-0.98538,0.98538,-0.170373,-21.7637,112.803)">
                <text x="36.605px" y="65.563px" style="font-family:'Lato-Regular', 'Lato', sans-serif;font-size:6.598px;">N</text>
            </g>
            <g transform="matrix(0.346355,-0.938103,0.938103,0.346355,-31.0181,71.7469)">
                <text x="35.976px" y="58.132px" style="font-family:'Lato-Regular', 'Lato', sans-serif;font-size:6.598px;">K</text>
            </g>
            <g transform="matrix(0.612131,-0.790756,0.790756,0.612131,-27.8216,50.5721)">
                <text x="37.64px" y="53.646px" style="font-family:'Lato-Regular', 'Lato', sans-serif;font-size:6.598px;">A</text>
            </g>
            <g transform="matrix(0.830621,-0.556838,0.556838,0.830621,-20.8946,31.0455)">
                <text x="40.584px" y="49.869px" style="font-family:'Lato-Regular', 'Lato', sans-serif;font-size:6.598px;">N</text>
            </g>
            <g transform="matrix(0.983952,-0.178435,0.178435,0.983952,-7.5076,9.14687)">
                <text x="47.097px" y="46.311px" style="font-family:'Lato-Regular', 'Lato', sans-serif;font-size:6.598px;">S</text>
            </g>
            <g transform="matrix(0.997196,0.0748298,-0.0748298,0.997196,3.55576,-3.67407)">
                <text x="50.808px" y="45.614px" style="font-family:'Lato-Regular', 'Lato', sans-serif;font-size:6.598px;">A</text>
            </g>
            <g transform="matrix(0.928426,0.371518,-0.371518,0.928426,21.0582,-17.3622)">
                <text x="55.59px" y="45.972px" style="font-family:'Lato-Regular', 'Lato', sans-serif;font-size:6.598px;">K</text>
            </g>
            <g transform="matrix(0.798231,0.602351,-0.602351,0.798231,40.8847,-26.5115)">
                <text x="60.016px" y="47.772px" style="font-family:'Lato-Regular', 'Lato', sans-serif;font-size:6.598px;">E</text>
            </g>
            <g transform="matrix(0.477949,0.878388,-0.878388,0.477949,79.3938,-29.8141)">
                <text x="64.779px" y="51.886px" style="font-family:'Lato-Regular', 'Lato', sans-serif;font-size:6.598px;">A</text>
            </g>
            <g transform="matrix(0.114404,0.993434,-0.993434,0.114404,114.785,-17.3382)">
                <text x="67.117px" y="55.712px" style="font-family:'Lato-Regular', 'Lato', sans-serif;font-size:6.598px;">W</text>
            </g>
            <g transform="matrix(-0.264418,0.964408,-0.964408,-0.264418,145.638,13.4607)">
                <text x="67.686px" y="62.271px" style="font-family:'Lato-Regular', 'Lato', sans-serif;font-size:6.598px;">A</text>
            </g>
            <g transform="matrix(-0.568378,0.822768,-0.822768,-0.568378,159.147,50.2678)">
                <text x="66.388px" y="66.878px" style="font-family:'Lato-Regular', 'Lato', sans-serif;font-size:6.598px;">R</text>
            </g>
            <g transform="matrix(-0.791979,0.610548,-0.610548,-0.791979,157.553,87.6635)">
                <text x="63.843px" y="70.672px" style="font-family:'Lato-Regular', 'Lato', sans-serif;font-size:6.598px;">D</text>
            </g>
            <g transform="matrix(-0.926223,0.376976,-0.376976,-0.926223,142.653,119.623)">
                <text x="59.621px" y="73.77px" style="font-family:'Lato-Regular', 'Lato', sans-serif;font-size:6.598px;">S</text>
            </g>
        </g>
        <g transform="matrix(0.875706,0,0,0.875706,0.154482,3.51309)">
            <circle cx="100.979" cy="97.144" r="45.83" style="fill:rgb(35,31,32);"/>
        </g>
        <g transform="matrix(3.15956,0,0,3.13849,19.7374,54.1628)">
            <text x="11.036px" y="14.043px" style="font-family:'Lato-Black', 'Lato Black', sans-serif;font-weight:900;font-size:7.592px;fill:url(#_Linear2);">G<tspan x="16.593px 22.818px 26.91px " y="14.043px 14.043px 14.043px ">OLD</tspan></text>
        </g>
    </g>
    <defs>
        <linearGradient id="_Linear1" x1="0" y1="0" x2="1" y2="0" gradientUnits="userSpaceOnUse" gradientTransform="matrix(99.3725,0,0,137.869,7.17637,65.671)"><stop offset="0" style="stop-color:rgb(228,191,112);stop-opacity:1"/><stop offset="0.03" style="stop-color:rgb(220,180,98);stop-opacity:1"/><stop offset="0.07" style="stop-color:rgb(214,170,86);stop-opacity:1"/><stop offset="0.19" style="stop-color:rgb(212,167,82);stop-opacity:1"/><stop offset="0.31" style="stop-color:rgb(245,196,119);stop-opacity:1"/><stop offset="0.45" style="stop-color:rgb(254,204,129);stop-opacity:1"/><stop offset="0.62" style="stop-color:rgb(198,155,85);stop-opacity:1"/><stop offset="0.75" style="stop-color:rgb(175,135,67);stop-opacity:1"/><stop offset="0.86" style="stop-color:rgb(198,155,85);stop-opacity:1"/><stop offset="1" style="stop-color:rgb(254,204,129);stop-opacity:1"/></linearGradient>
        <linearGradient id="_Linear2" x1="0" y1="0" x2="1" y2="0" gradientUnits="userSpaceOnUse" gradientTransform="matrix(160.75,0,0,95.6154,-36.5367,13.7795)"><stop offset="0" style="stop-color:rgb(228,191,112);stop-opacity:1"/><stop offset="0.03" style="stop-color:rgb(220,180,98);stop-opacity:1"/><stop offset="0.07" style="stop-color:rgb(214,170,86);stop-opacity:1"/><stop offset="0.19" style="stop-color:rgb(212,167,82);stop-opacity:1"/><stop offset="0.32" style="stop-color:rgb(245,196,119);stop-opacity:1"/><stop offset="0.47" style="stop-color:rgb(254,204,129);stop-opacity:1"/><stop offset="0.66" style="stop-color:rgb(198,155,85);stop-opacity:1"/><stop offset="0.81" style="stop-color:rgb(175,135,67);stop-opacity:1"/><stop offset="0.89" style="stop-color:rgb(198,155,85);stop-opacity:1"/><stop offset="1" style="stop-color:rgb(254,204,129);stop-opacity:1"/></linearGradient>
    </defs>
</svg>
