<?xml version="1.0" encoding="UTF-8" standalone="no"?>
<!DOCTYPE svg PUBLIC "-//W3C//DTD SVG 1.1//EN" "http://www.w3.org/Graphics/SVG/1.1/DTD/svg11.dtd">
<svg width="100%" height="100%" viewBox="0 0 154 154" version="1.1" xmlns="http://www.w3.org/2000/svg" xmlns:xlink="http://www.w3.org/1999/xlink" xml:space="preserve" xmlns:serif="http://www.serif.com/" style="fill-rule:evenodd;clip-rule:evenodd;stroke-linejoin:round;stroke-miterlimit:2;">
    <g transform="matrix(0.989063,0,0,0.995702,-10.8422,-11.4303)">
        <g transform="matrix(1.61301,0,0,1.60226,1.18928,-16.639)">
            <circle cx="54.18" cy="65.671" r="48.122" style="fill:url(#_Linear1);"/>
        </g>
        <g transform="matrix(3.15956,0,0,3.13849,-75.0319,-101.871)">
            <g transform="matrix(-0.954375,-0.298609,0.298609,-0.954375,73.4218,162.414)">
                <text x="49.119px" y="75.598px" style="font-family:'Lato-Regular', 'Lato', sans-serif;font-size:6.598px;">U</text>
            </g>
            <g transform="matrix(-0.858492,-0.512827,0.512827,-0.858492,45.2662,160.918)">
                <text x="44.835px" y="74.213px" style="font-family:'Lato-Regular', 'Lato', sans-serif;font-size:6.598px;">S</text>
            </g>
            <g transform="matrix(-0.640479,-0.767975,0.767975,-0.640479,12.0173,149.306)">
                <text x="40.957px" y="71.84px" style="font-family:'Lato-Regular', 'Lato', sans-serif;font-size:6.598px;">N</text>
            </g>
            <g transform="matrix(-0.385939,-0.922524,0.922524,-0.385939,-10.3736,129.589)">
                <text x="37.942px" y="68.247px" style="font-family:'Lato-Regular', 'Lato', sans-serif;font-size:6.598px;">A</text>
            </g>
            <g transform="matrix(-0.167921,-0.9858,0.9858,-0.167921,-21.4372,111.885)">
                <text x="36.501px" y="64.99px" style="font-family:'Lato-Regular', 'Lato', sans-serif;font-size:6.598px;">T</text>
            </g>
            <g transform="matrix(0.0167699,-0.999859,0.999859,0.0167699,-26.0913,96.3769)">
                <text x="35.958px" y="61.455px" style="font-family:'Lato-Regular', 'Lato', sans-serif;font-size:6.598px;">I</text>
            </g>
            <g transform="matrix(0.246995,-0.969017,0.969017,0.246995,-30.9477,79.6275)">
                <text x="35.761px" y="59.726px" style="font-family:'Lato-Regular', 'Lato', sans-serif;font-size:6.598px;">O</text>
            </g>
            <g transform="matrix(0.549245,-0.835662,0.835662,0.549245,-29.2033,55.6422)">
                <text x="36.976px" y="54.891px" style="font-family:'Lato-Regular', 'Lato', sans-serif;font-size:6.598px;">N</text>
            </g>
            <g transform="matrix(0.764661,-0.644433,0.644433,0.764661,-23.5401,37.4834)">
                <text x="39.551px" y="50.972px" style="font-family:'Lato-Regular', 'Lato', sans-serif;font-size:6.598px;">A</text>
            </g>
            <g transform="matrix(0.896057,-0.44394,0.44394,0.896057,-16.9927,23.9945)">
                <text x="42.744px" y="48.285px" style="font-family:'Lato-Regular', 'Lato', sans-serif;font-size:6.598px;">L</text>
            </g>
            <g transform="matrix(0.979725,-0.200346,0.200346,0.979725,-8.352,10.3057)">
                <text x="46.742px" y="46.418px" style="font-family:'Lato-Regular', 'Lato', sans-serif;font-size:6.598px;">S</text>
            </g>
            <g transform="matrix(0.999838,0.0179864,-0.0179864,0.999838,0.829998,-0.889091)">
                <text x="49.842px" y="45.698px" style="font-family:'Lato-Regular', 'Lato', sans-serif;font-size:6.598px;">A</text>
            </g>
            <g transform="matrix(0.95973,0.280923,-0.280923,0.95973,15.0117,-13.3398)">
                <text x="54.035px" y="45.691px" style="font-family:'Lato-Regular', 'Lato', sans-serif;font-size:6.598px;">K</text>
            </g>
            <g transform="matrix(0.87209,0.489345,-0.489345,0.87209,30.3412,-22.425)">
                <text x="58.066px" y="46.826px" style="font-family:'Lato-Regular', 'Lato', sans-serif;font-size:6.598px;">E</text>
            </g>
            <g transform="matrix(0.672282,0.740295,-0.740295,0.672282,56.8969,-29.9471)">
                <text x="62.273px" y="49.29px" style="font-family:'Lato-Regular', 'Lato', sans-serif;font-size:6.598px;">A</text>
            </g>
            <g transform="matrix(0.435947,0.899972,-0.899972,0.435947,84.0031,-29.0799)">
                <text x="65.201px" y="52.475px" style="font-family:'Lato-Regular', 'Lato', sans-serif;font-size:6.598px;">P</text>
            </g>
            <g transform="matrix(0.181792,0.983337,-0.983337,0.181792,109.767,-20.0901)">
                <text x="66.956px" y="55.915px" style="font-family:'Lato-Regular', 'Lato', sans-serif;font-size:6.598px;">P</text>
            </g>
            <g transform="matrix(-0.0978078,0.995205,-0.995205,-0.0978078,133.807,-1.88998)">
                <text x="67.76px" y="59.706px" style="font-family:'Lato-Regular', 'Lato', sans-serif;font-size:6.598px;">R</text>
            </g>
            <g transform="matrix(-0.365149,0.930949,-0.930949,-0.365149,151.436,24.2924)">
                <text x="67.435px" y="63.781px" style="font-family:'Lato-Regular', 'Lato', sans-serif;font-size:6.598px;">A</text>
            </g>
            <g transform="matrix(-0.550532,0.834814,-0.834814,-0.550532,158.519,50.1136)">
                <text x="65.769px" y="67.73px" style="font-family:'Lato-Regular', 'Lato', sans-serif;font-size:6.598px;">I</text>
            </g>
            <g transform="matrix(-0.682213,0.731154,-0.731154,-0.682213,159.713,69.1917)">
                <text x="64.82px" y="69.305px" style="font-family:'Lato-Regular', 'Lato', sans-serif;font-size:6.598px;">S</text>
            </g>
            <g transform="matrix(-0.838707,0.544583,-0.544583,-0.838707,154.209,97.9057)">
                <text x="62.606px" y="71.789px" style="font-family:'Lato-Regular', 'Lato', sans-serif;font-size:6.598px;">A</text>
            </g>
            <g transform="matrix(-0.945864,0.324562,-0.324562,-0.945864,138.834,125.078)">
                <text x="58.986px" y="74.117px" style="font-family:'Lato-Regular', 'Lato', sans-serif;font-size:6.598px;">L</text>
            </g>
        </g>
        <g transform="matrix(0.875706,0,0,0.875706,0.154482,3.51309)">
            <circle cx="100.979" cy="97.144" r="45.83" style="fill:rgb(35,31,32);"/>
        </g>
        <g transform="matrix(3.15956,0,0,3.13849,19.7374,54.1628)">
            <text x="11.263px" y="14.043px" style="font-family:'Lato-Black', 'Lato Black', sans-serif;font-weight:900;font-size:7.592px;fill:url(#_Linear2);">GOLD</text>
        </g>
    </g>
    <defs>
        <linearGradient id="_Linear1" x1="0" y1="0" x2="1" y2="0" gradientUnits="userSpaceOnUse" gradientTransform="matrix(99.3725,0,0,137.869,7.17637,65.671)"><stop offset="0" style="stop-color:rgb(228,191,112);stop-opacity:1"/><stop offset="0.03" style="stop-color:rgb(220,180,98);stop-opacity:1"/><stop offset="0.07" style="stop-color:rgb(214,170,86);stop-opacity:1"/><stop offset="0.19" style="stop-color:rgb(212,167,82);stop-opacity:1"/><stop offset="0.31" style="stop-color:rgb(245,196,119);stop-opacity:1"/><stop offset="0.45" style="stop-color:rgb(254,204,129);stop-opacity:1"/><stop offset="0.62" style="stop-color:rgb(198,155,85);stop-opacity:1"/><stop offset="0.75" style="stop-color:rgb(175,135,67);stop-opacity:1"/><stop offset="0.86" style="stop-color:rgb(198,155,85);stop-opacity:1"/><stop offset="1" style="stop-color:rgb(254,204,129);stop-opacity:1"/></linearGradient>
        <linearGradient id="_Linear2" x1="0" y1="0" x2="1" y2="0" gradientUnits="userSpaceOnUse" gradientTransform="matrix(160.75,0,0,95.6154,-36.5367,13.7795)"><stop offset="0" style="stop-color:rgb(228,191,112);stop-opacity:1"/><stop offset="0.03" style="stop-color:rgb(220,180,98);stop-opacity:1"/><stop offset="0.07" style="stop-color:rgb(214,170,86);stop-opacity:1"/><stop offset="0.19" style="stop-color:rgb(212,167,82);stop-opacity:1"/><stop offset="0.32" style="stop-color:rgb(245,196,119);stop-opacity:1"/><stop offset="0.47" style="stop-color:rgb(254,204,129);stop-opacity:1"/><stop offset="0.66" style="stop-color:rgb(198,155,85);stop-opacity:1"/><stop offset="0.81" style="stop-color:rgb(175,135,67);stop-opacity:1"/><stop offset="0.89" style="stop-color:rgb(198,155,85);stop-opacity:1"/><stop offset="1" style="stop-color:rgb(254,204,129);stop-opacity:1"/></linearGradient>
    </defs>
</svg>
