<?xml version="1.0" encoding="UTF-8" standalone="no"?>
<!DOCTYPE svg PUBLIC "-//W3C//DTD SVG 1.1//EN" "http://www.w3.org/Graphics/SVG/1.1/DTD/svg11.dtd">
<svg width="100%" height="100%" viewBox="0 0 154 154" version="1.1" xmlns="http://www.w3.org/2000/svg" xmlns:xlink="http://www.w3.org/1999/xlink" xml:space="preserve" xmlns:serif="http://www.serif.com/" style="fill-rule:evenodd;clip-rule:evenodd;stroke-linejoin:round;stroke-miterlimit:2;">
    <g transform="matrix(0.989063,0,0,0.995702,-10.8422,-11.4303)">
        <g transform="matrix(1.61301,0,0,1.60226,1.18928,-16.639)">
            <circle cx="54.18" cy="65.671" r="48.122" style="fill:url(#_Linear1);"/>
        </g>
        <g transform="matrix(3.15956,0,0,3.13849,-75.0319,-101.871)">
            <g transform="matrix(-0.980609,-0.195974,0.195974,-0.980609,84.9556,159.774)">
                <text x="50.382px" y="75.684px" style="font-family:'Lato-Regular', 'Lato', sans-serif;font-size:6.598px;">L</text>
            </g>
            <g transform="matrix(-0.935366,-0.353681,0.353681,-0.935366,66.0039,162.669)">
                <text x="47.866px" y="75.304px" style="font-family:'Lato-Regular', 'Lato', sans-serif;font-size:6.598px;">Y</text>
            </g>
            <g transform="matrix(-0.801764,-0.597641,0.597641,-0.801764,35.264,159.701)">
                <text x="44.118px" y="74.002px" style="font-family:'Lato-Regular', 'Lato', sans-serif;font-size:6.598px;">O</text>
            </g>
            <g transform="matrix(-0.555025,-0.831834,0.831834,-0.555025,3.04166,143.056)">
                <text x="39.784px" y="70.715px" style="font-family:'Lato-Regular', 'Lato', sans-serif;font-size:6.598px;">N</text>
            </g>
            <g transform="matrix(-0.1466,-0.989196,0.989196,-0.1466,-22.069,109.916)">
                <text x="36.379px" y="64.478px" style="font-family:'Lato-Regular', 'Lato', sans-serif;font-size:6.598px;">S</text>
            </g>
            <g transform="matrix(0.141662,-0.989915,0.989915,0.141662,-29.5163,87.6792)">
                <text x="35.802px" y="60.86px" style="font-family:'Lato-Regular', 'Lato', sans-serif;font-size:6.598px;">P</text>
            </g>
            <g transform="matrix(0.343328,-0.939215,0.939215,0.343328,-29.3454,71.5397)">
                <text x="36.488px" y="56.756px" style="font-family:'Lato-Regular', 'Lato', sans-serif;font-size:6.598px;">I</text>
            </g>
            <g transform="matrix(0.558859,-0.829263,0.829263,0.558859,-28.9472,54.877)">
                <text x="37.106px" y="54.646px" style="font-family:'Lato-Regular', 'Lato', sans-serif;font-size:6.598px;">R</text>
            </g>
            <g transform="matrix(0.711147,-0.703043,0.703043,0.711147,-24.4538,42.6177)">
                <text x="39.637px" y="51.068px" style="font-family:'Lato-Regular', 'Lato', sans-serif;font-size:6.598px;">I</text>
            </g>
            <g transform="matrix(0.834687,-0.550725,0.550725,0.834687,-20.4547,30.8313)">
                <text x="41.128px" y="49.487px" style="font-family:'Lato-Regular', 'Lato', sans-serif;font-size:6.598px;">T</text>
            </g>
            <g transform="matrix(0.940476,-0.339861,0.339861,0.940476,-13.4254,17.948)">
                <text x="44.525px" y="47.301px" style="font-family:'Lato-Regular', 'Lato', sans-serif;font-size:6.598px;">S</text>
            </g>
            <g transform="matrix(0.999712,0.0239797,-0.0239797,0.999712,1.10988,-1.18388)">
                <text x="49.918px" y="45.686px" style="font-family:'Lato-Regular', 'Lato', sans-serif;font-size:6.598px;">C</text>
            </g>
            <g transform="matrix(0.947292,0.320372,-0.320372,0.947292,17.5386,-15.0833)">
                <text x="54.609px" y="45.76px" style="font-family:'Lato-Regular', 'Lato', sans-serif;font-size:6.598px;">O</text>
            </g>
            <g transform="matrix(0.772692,0.634781,-0.634781,0.772692,43.7277,-27.1712)">
                <text x="59.803px" y="47.471px" style="font-family:'Lato-Regular', 'Lato', sans-serif;font-size:6.598px;">M</text>
            </g>
            <g transform="matrix(0.503808,0.863816,-0.863816,0.503808,76.5581,-30.1491)">
                <text x="64.522px" y="51.565px" style="font-family:'Lato-Regular', 'Lato', sans-serif;font-size:6.598px;">P</text>
            </g>
            <g transform="matrix(0.250172,0.968201,-0.968201,0.250172,103.375,-23.1551)">
                <text x="66.637px" y="55.163px" style="font-family:'Lato-Regular', 'Lato', sans-serif;font-size:6.598px;">E</text>
            </g>
            <g transform="matrix(-0.0201229,0.999798,-0.999798,-0.0201229,128.011,-7.39986)">
                <text x="67.632px" y="59.03px" style="font-family:'Lato-Regular', 'Lato', sans-serif;font-size:6.598px;">T</text>
            </g>
            <g transform="matrix(-0.235839,0.971792,-0.971792,-0.235839,144.61,12.3882)">
                <text x="67.434px" y="63.051px" style="font-family:'Lato-Regular', 'Lato', sans-serif;font-size:6.598px;">I</text>
            </g>
            <g transform="matrix(-0.438791,0.898589,-0.898589,-0.438791,154.978,33.5888)">
                <text x="67px" y="65.19px" style="font-family:'Lato-Regular', 'Lato', sans-serif;font-size:6.598px;">T</text>
            </g>
            <g transform="matrix(-0.61573,0.787958,-0.787958,-0.61573,159.413,59.7669)">
                <text x="65.133px" y="68.755px" style="font-family:'Lato-Regular', 'Lato', sans-serif;font-size:6.598px;">I</text>
            </g>
            <g transform="matrix(-0.788367,0.615206,-0.615206,-0.788367,157.736,86.9296)">
                <text x="63.916px" y="70.596px" style="font-family:'Lato-Regular', 'Lato', sans-serif;font-size:6.598px;">O</text>
            </g>
            <g transform="matrix(-0.944419,0.328744,-0.328744,-0.944419,140.167,124.096)">
                <text x="59.593px" y="73.897px" style="font-family:'Lato-Regular', 'Lato', sans-serif;font-size:6.598px;">N</text>
            </g>
        </g>
        <g transform="matrix(0.875706,0,0,0.875706,0.154482,3.51309)">
            <circle cx="100.979" cy="97.144" r="45.83" style="fill:rgb(35,31,32);"/>
        </g>
        <g transform="matrix(3.15956,0,0,3.13849,19.7374,54.1628)">
            <text x="11.036px" y="14.043px" style="font-family:'Lato-Black', 'Lato Black', sans-serif;font-weight:900;font-size:7.592px;fill:url(#_Linear2);">G<tspan x="16.593px 22.818px 26.91px " y="14.043px 14.043px 14.043px ">OLD</tspan></text>
        </g>
    </g>
    <defs>
        <linearGradient id="_Linear1" x1="0" y1="0" x2="1" y2="0" gradientUnits="userSpaceOnUse" gradientTransform="matrix(99.3725,0,0,137.869,7.17637,65.671)"><stop offset="0" style="stop-color:rgb(228,191,112);stop-opacity:1"/><stop offset="0.03" style="stop-color:rgb(220,180,98);stop-opacity:1"/><stop offset="0.07" style="stop-color:rgb(214,170,86);stop-opacity:1"/><stop offset="0.19" style="stop-color:rgb(212,167,82);stop-opacity:1"/><stop offset="0.31" style="stop-color:rgb(245,196,119);stop-opacity:1"/><stop offset="0.45" style="stop-color:rgb(254,204,129);stop-opacity:1"/><stop offset="0.62" style="stop-color:rgb(198,155,85);stop-opacity:1"/><stop offset="0.75" style="stop-color:rgb(175,135,67);stop-opacity:1"/><stop offset="0.86" style="stop-color:rgb(198,155,85);stop-opacity:1"/><stop offset="1" style="stop-color:rgb(254,204,129);stop-opacity:1"/></linearGradient>
        <linearGradient id="_Linear2" x1="0" y1="0" x2="1" y2="0" gradientUnits="userSpaceOnUse" gradientTransform="matrix(160.75,0,0,95.6154,-36.5367,13.7795)"><stop offset="0" style="stop-color:rgb(228,191,112);stop-opacity:1"/><stop offset="0.03" style="stop-color:rgb(220,180,98);stop-opacity:1"/><stop offset="0.07" style="stop-color:rgb(214,170,86);stop-opacity:1"/><stop offset="0.19" style="stop-color:rgb(212,167,82);stop-opacity:1"/><stop offset="0.32" style="stop-color:rgb(245,196,119);stop-opacity:1"/><stop offset="0.47" style="stop-color:rgb(254,204,129);stop-opacity:1"/><stop offset="0.66" style="stop-color:rgb(198,155,85);stop-opacity:1"/><stop offset="0.81" style="stop-color:rgb(175,135,67);stop-opacity:1"/><stop offset="0.89" style="stop-color:rgb(198,155,85);stop-opacity:1"/><stop offset="1" style="stop-color:rgb(254,204,129);stop-opacity:1"/></linearGradient>
    </defs>
</svg>
