<?xml version="1.0" encoding="UTF-8" standalone="no"?>
<!DOCTYPE svg PUBLIC "-//W3C//DTD SVG 1.1//EN" "http://www.w3.org/Graphics/SVG/1.1/DTD/svg11.dtd">
<svg width="100%" height="100%" viewBox="0 0 154 154" version="1.1" xmlns="http://www.w3.org/2000/svg" xmlns:xlink="http://www.w3.org/1999/xlink" xml:space="preserve" xmlns:serif="http://www.serif.com/" style="fill-rule:evenodd;clip-rule:evenodd;stroke-linejoin:round;stroke-miterlimit:2;">
    <g transform="matrix(0.989063,0,0,0.995702,-10.8422,-11.4303)">
        <g transform="matrix(1.61301,0,0,1.60226,1.18928,-16.639)">
            <circle cx="54.18" cy="65.671" r="48.122" style="fill:url(#_Linear1);"/>
        </g>
        <g transform="matrix(3.15956,0,0,3.13849,-75.0319,-101.871)">
            <g transform="matrix(-0.933002,-0.359872,0.359872,-0.933002,65.1498,162.651)">
                <text x="47.715px" y="75.261px" style="font-family:'Lato-Regular', 'Lato', sans-serif;font-size:6.598px;">F</text>
            </g>
            <g transform="matrix(-0.852798,-0.522242,0.522242,-0.852798,43.1249,159.69)">
                <text x="44.068px" y="73.767px" style="font-family:'Lato-Regular', 'Lato', sans-serif;font-size:6.598px;">I</text>
            </g>
            <g transform="matrix(-0.707996,-0.706217,0.706217,-0.707996,20.5013,153.919)">
                <text x="42.072px" y="72.721px" style="font-family:'Lato-Regular', 'Lato', sans-serif;font-size:6.598px;">N</text>
            </g>
            <g transform="matrix(-0.454321,-0.890838,0.890838,-0.454321,-5.51493,134.563)">
                <text x="38.455px" y="68.97px" style="font-family:'Lato-Regular', 'Lato', sans-serif;font-size:6.598px;">E</text>
            </g>
            <g transform="matrix(-0.0636432,-0.997973,0.997973,-0.0636432,-24.7773,103.383)">
                <text x="36.111px" y="63.315px" style="font-family:'Lato-Regular', 'Lato', sans-serif;font-size:6.598px;">S</text>
            </g>
            <g transform="matrix(0.230243,-0.973133,0.973133,0.230243,-30.4128,80.7496)">
                <text x="35.836px" y="59.599px" style="font-family:'Lato-Regular', 'Lato', sans-serif;font-size:6.598px;">A</text>
            </g>
            <g transform="matrix(0.544726,-0.838614,0.838614,0.544726,-29.31,56.0033)">
                <text x="36.924px" y="54.996px" style="font-family:'Lato-Regular', 'Lato', sans-serif;font-size:6.598px;">K</text>
            </g>
            <g transform="matrix(0.752614,-0.658462,0.658462,0.752614,-23.8362,38.6525)">
                <text x="39.522px" y="51.048px" style="font-family:'Lato-Regular', 'Lato', sans-serif;font-size:6.598px;">E</text>
            </g>
            <g transform="matrix(0.948233,-0.317575,0.317575,0.948233,-12.7249,16.5418)">
                <text x="44.377px" y="47.303px" style="font-family:'Lato-Regular', 'Lato', sans-serif;font-size:6.598px;">A</text>
            </g>
            <g transform="matrix(0.999999,0.00149911,-0.00149911,0.999999,0.068609,-0.0725798)">
                <text x="48.45px" y="45.73px" style="font-family:'Lato-Regular', 'Lato', sans-serif;font-size:6.598px;">W</text>
            </g>
            <g transform="matrix(0.947528,0.319673,-0.319673,0.947528,17.5511,-15.1626)">
                <text x="54.963px" y="45.882px" style="font-family:'Lato-Regular', 'Lato', sans-serif;font-size:6.598px;">A</text>
            </g>
            <g transform="matrix(0.8109,0.585184,-0.585184,0.8109,38.9746,-25.8142)">
                <text x="59.429px" y="47.398px" style="font-family:'Lato-Regular', 'Lato', sans-serif;font-size:6.598px;">R</text>
            </g>
            <g transform="matrix(0.599416,0.800438,-0.800438,0.599416,65.2774,-30.5143)">
                <text x="63.125px" y="49.961px" style="font-family:'Lato-Regular', 'Lato', sans-serif;font-size:6.598px;">D</text>
            </g>
            <g transform="matrix(0.343328,0.939215,-0.939215,0.343328,94.3248,-26.5383)">
                <text x="66.141px" y="54.186px" style="font-family:'Lato-Regular', 'Lato', sans-serif;font-size:6.598px;">S</text>
            </g>
            <g transform="matrix(-0.0234754,0.999724,-0.999724,-0.0234754,128.938,-6.4539)">
                <text x="67.621px" y="59.746px" style="font-family:'Lato-Regular', 'Lato', sans-serif;font-size:6.598px;">J</text>
            </g>
            <g transform="matrix(-0.289517,0.957173,-0.957173,-0.289517,147.183,16.0378)">
                <text x="67.639px" y="62.644px" style="font-family:'Lato-Regular', 'Lato', sans-serif;font-size:6.598px;">A</text>
            </g>
            <g transform="matrix(-0.576551,0.817061,-0.817061,-0.576551,159.275,51.7568)">
                <text x="66.226px" y="67.151px" style="font-family:'Lato-Regular', 'Lato', sans-serif;font-size:6.598px;">P</text>
            </g>
            <g transform="matrix(-0.751638,0.659575,-0.659575,-0.751638,158.773,80.5288)">
                <text x="64.225px" y="70.157px" style="font-family:'Lato-Regular', 'Lato', sans-serif;font-size:6.598px;">A</text>
            </g>
            <g transform="matrix(-0.916805,0.399335,-0.399335,-0.916805,145.553,116.222)">
                <text x="60.67px" y="73.273px" style="font-family:'Lato-Regular', 'Lato', sans-serif;font-size:6.598px;">N</text>
            </g>
        </g>
        <g transform="matrix(0.875706,0,0,0.875706,0.154482,3.51309)">
            <circle cx="100.979" cy="97.144" r="45.83" style="fill:rgb(35,31,32);"/>
        </g>
        <g transform="matrix(3.15956,0,0,3.13849,19.7374,54.1628)">
            <text x="11.263px" y="14.043px" style="font-family:'Lato-Black', 'Lato Black', sans-serif;font-weight:900;font-size:7.592px;fill:url(#_Linear2);">GOLD</text>
        </g>
    </g>
    <defs>
        <linearGradient id="_Linear1" x1="0" y1="0" x2="1" y2="0" gradientUnits="userSpaceOnUse" gradientTransform="matrix(99.3725,0,0,137.869,7.17637,65.671)"><stop offset="0" style="stop-color:rgb(228,191,112);stop-opacity:1"/><stop offset="0.03" style="stop-color:rgb(220,180,98);stop-opacity:1"/><stop offset="0.07" style="stop-color:rgb(214,170,86);stop-opacity:1"/><stop offset="0.19" style="stop-color:rgb(212,167,82);stop-opacity:1"/><stop offset="0.31" style="stop-color:rgb(245,196,119);stop-opacity:1"/><stop offset="0.45" style="stop-color:rgb(254,204,129);stop-opacity:1"/><stop offset="0.62" style="stop-color:rgb(198,155,85);stop-opacity:1"/><stop offset="0.75" style="stop-color:rgb(175,135,67);stop-opacity:1"/><stop offset="0.86" style="stop-color:rgb(198,155,85);stop-opacity:1"/><stop offset="1" style="stop-color:rgb(254,204,129);stop-opacity:1"/></linearGradient>
        <linearGradient id="_Linear2" x1="0" y1="0" x2="1" y2="0" gradientUnits="userSpaceOnUse" gradientTransform="matrix(160.75,0,0,95.6154,-36.5367,13.7795)"><stop offset="0" style="stop-color:rgb(228,191,112);stop-opacity:1"/><stop offset="0.03" style="stop-color:rgb(220,180,98);stop-opacity:1"/><stop offset="0.07" style="stop-color:rgb(214,170,86);stop-opacity:1"/><stop offset="0.19" style="stop-color:rgb(212,167,82);stop-opacity:1"/><stop offset="0.32" style="stop-color:rgb(245,196,119);stop-opacity:1"/><stop offset="0.47" style="stop-color:rgb(254,204,129);stop-opacity:1"/><stop offset="0.66" style="stop-color:rgb(198,155,85);stop-opacity:1"/><stop offset="0.81" style="stop-color:rgb(175,135,67);stop-opacity:1"/><stop offset="0.89" style="stop-color:rgb(198,155,85);stop-opacity:1"/><stop offset="1" style="stop-color:rgb(254,204,129);stop-opacity:1"/></linearGradient>
    </defs>
</svg>
